<svg width="24" height="29" viewBox="0 0 24 29" fill="none" xmlns="http://www.w3.org/2000/svg">
<path d="M21.9869 2.72264H19.914V4.53301H21.7244V27.1626H1.81036V4.53301H3.62073V2.72264H1.81036C1.58869 2.69058 1.36273 2.70589 1.14741 2.76757C0.932087 2.82925 0.732292 2.93589 0.56121 3.08045C0.390127 3.22502 0.251648 3.40422 0.154909 3.60623C0.0581706 3.80825 0.00537277 4.02848 0 4.2524V27.4432C0.00118521 27.6452 0.0421626 27.8451 0.120592 28.0313C0.199021 28.2176 0.313367 28.3866 0.4571 28.5286C0.600833 28.6707 0.771138 28.783 0.958291 28.8593C1.14544 28.9355 1.34578 28.9741 1.54786 28.9729H21.9869C22.1889 28.9741 22.3893 28.9355 22.5764 28.8593C22.7636 28.783 22.9339 28.6707 23.0776 28.5286C23.2214 28.3866 23.3357 28.2176 23.4141 28.0313C23.4926 27.8451 23.5335 27.6452 23.5347 27.4432V4.2524C23.5335 4.05032 23.4926 3.85045 23.4141 3.66421C23.3357 3.47796 23.2214 3.30899 23.0776 3.16694C22.9339 3.02489 22.7636 2.91254 22.5764 2.83631C22.3893 2.76007 22.1889 2.72145 21.9869 2.72264Z" fill="white"/>
<path d="M19.009 4.83172C19.0066 4.27309 18.7837 3.73802 18.3887 3.34301C17.9937 2.948 17.4586 2.72503 16.9 2.72265H15.2706C15.0712 1.94381 14.6183 1.2535 13.9832 0.760537C13.3481 0.267574 12.567 0 11.7631 0C10.9591 0 10.178 0.267574 9.54292 0.760537C8.90784 1.2535 8.45488 1.94381 8.25547 2.72265H6.6352C6.07657 2.72503 5.5415 2.948 5.14649 3.34301C4.75148 3.73802 4.52851 4.27309 4.52612 4.83172V8.15374H19.009V4.83172ZM17.1987 6.34337H6.33649V4.83172C6.33649 4.79249 6.34421 4.75365 6.35922 4.71741C6.37424 4.68117 6.39624 4.64824 6.42398 4.6205C6.45171 4.59276 6.48464 4.57076 6.52088 4.55575C6.55713 4.54074 6.59597 4.53301 6.6352 4.53301H9.95721V3.62783C9.95721 3.14769 10.1479 2.68722 10.4875 2.34771C10.827 2.0082 11.2874 1.81746 11.7676 1.81746C12.2477 1.81746 12.7082 2.0082 13.0477 2.34771C13.3872 2.68722 13.5779 3.14769 13.5779 3.62783V4.53301H16.9C16.9792 4.53301 17.0552 4.56448 17.1112 4.6205C17.1672 4.67652 17.1987 4.7525 17.1987 4.83172V6.34337Z" fill="white"/>
<path d="M5.43115 12.7273H18.1037V14.5377H5.43115V12.7273Z" fill="white"/>
<path d="M5.43115 19.2541H18.1037V21.0645H5.43115V19.2541Z" fill="white"/>
</svg>
